<mxfile host="app.diagrams.net" modified="2024-04-04T03:23:18.852Z" agent="Mozilla/5.0 (Windows NT 10.0; Win64; x64) AppleWebKit/537.36 (KHTML, like Gecko) Chrome/123.0.0.0 Safari/537.36" etag="Azg7sjYXgt_rSkPCYE7u" version="24.2.1" type="device">
  <diagram id="R2lEEEUBdFMjLlhIrx00" name="Page-1">
    <mxGraphModel dx="2071" dy="665" grid="1" gridSize="10" guides="1" tooltips="1" connect="1" arrows="1" fold="1" page="1" pageScale="1" pageWidth="850" pageHeight="1100" math="0" shadow="0" extFonts="Permanent Marker^https://fonts.googleapis.com/css?family=Permanent+Marker">
      <root>
        <mxCell id="0" />
        <mxCell id="1" parent="0" />
        <mxCell id="_1_03TyXAIXI8CmlSwA5-1" value="User" style="whiteSpace=wrap;html=1;" parent="1" vertex="1">
          <mxGeometry x="60" y="240" width="120" height="60" as="geometry" />
        </mxCell>
        <mxCell id="_1_03TyXAIXI8CmlSwA5-10" style="edgeStyle=none;rounded=0;orthogonalLoop=1;jettySize=auto;html=1;exitX=0.5;exitY=1;exitDx=0;exitDy=0;endArrow=none;endFill=0;" parent="1" source="_1_03TyXAIXI8CmlSwA5-2" target="_1_03TyXAIXI8CmlSwA5-1" edge="1">
          <mxGeometry relative="1" as="geometry" />
        </mxCell>
        <mxCell id="_1_03TyXAIXI8CmlSwA5-2" value="UserID" style="ellipse;whiteSpace=wrap;html=1;fontStyle=5" parent="1" vertex="1">
          <mxGeometry x="-80" y="160" width="120" height="50" as="geometry" />
        </mxCell>
        <mxCell id="_1_03TyXAIXI8CmlSwA5-11" value="" style="edgeStyle=none;rounded=0;orthogonalLoop=1;jettySize=auto;html=1;endArrow=none;endFill=0;" parent="1" source="_1_03TyXAIXI8CmlSwA5-4" target="_1_03TyXAIXI8CmlSwA5-1" edge="1">
          <mxGeometry relative="1" as="geometry" />
        </mxCell>
        <mxCell id="_1_03TyXAIXI8CmlSwA5-4" value="UserName" style="ellipse;whiteSpace=wrap;html=1;" parent="1" vertex="1">
          <mxGeometry x="160" y="160" width="120" height="50" as="geometry" />
        </mxCell>
        <mxCell id="_1_03TyXAIXI8CmlSwA5-13" style="edgeStyle=none;rounded=0;orthogonalLoop=1;jettySize=auto;html=1;exitX=0;exitY=1;exitDx=0;exitDy=0;endArrow=none;endFill=0;" parent="1" source="_1_03TyXAIXI8CmlSwA5-5" target="_1_03TyXAIXI8CmlSwA5-1" edge="1">
          <mxGeometry relative="1" as="geometry" />
        </mxCell>
        <mxCell id="_1_03TyXAIXI8CmlSwA5-5" value="Password" style="ellipse;whiteSpace=wrap;html=1;" parent="1" vertex="1">
          <mxGeometry x="212" y="228" width="120" height="50" as="geometry" />
        </mxCell>
        <mxCell id="_1_03TyXAIXI8CmlSwA5-14" value="Album" style="whiteSpace=wrap;html=1;" parent="1" vertex="1">
          <mxGeometry x="-255" y="440" width="120" height="60" as="geometry" />
        </mxCell>
        <mxCell id="_1_03TyXAIXI8CmlSwA5-17" value="" style="edgeStyle=none;rounded=0;orthogonalLoop=1;jettySize=auto;html=1;endArrow=none;endFill=0;" parent="1" source="_1_03TyXAIXI8CmlSwA5-18" target="_1_03TyXAIXI8CmlSwA5-14" edge="1">
          <mxGeometry relative="1" as="geometry" />
        </mxCell>
        <mxCell id="_1_03TyXAIXI8CmlSwA5-18" value="AlbumID" style="ellipse;whiteSpace=wrap;html=1;fontStyle=5" parent="1" vertex="1">
          <mxGeometry x="-425" y="465" width="120" height="50" as="geometry" />
        </mxCell>
        <mxCell id="_1_03TyXAIXI8CmlSwA5-21" value="" style="edgeStyle=none;rounded=0;orthogonalLoop=1;jettySize=auto;html=1;endArrow=none;endFill=0;" parent="1" source="_1_03TyXAIXI8CmlSwA5-20" target="_1_03TyXAIXI8CmlSwA5-14" edge="1">
          <mxGeometry relative="1" as="geometry" />
        </mxCell>
        <mxCell id="_1_03TyXAIXI8CmlSwA5-20" value="AlbumTitle" style="ellipse;whiteSpace=wrap;html=1;" parent="1" vertex="1">
          <mxGeometry x="-350" y="540" width="120" height="50" as="geometry" />
        </mxCell>
        <mxCell id="_1_03TyXAIXI8CmlSwA5-23" style="edgeStyle=none;rounded=0;orthogonalLoop=1;jettySize=auto;html=1;exitX=0.5;exitY=0;exitDx=0;exitDy=0;endArrow=none;endFill=0;" parent="1" source="_1_03TyXAIXI8CmlSwA5-22" target="_1_03TyXAIXI8CmlSwA5-14" edge="1">
          <mxGeometry relative="1" as="geometry" />
        </mxCell>
        <mxCell id="_1_03TyXAIXI8CmlSwA5-22" value="ReleaseDate" style="ellipse;whiteSpace=wrap;html=1;" parent="1" vertex="1">
          <mxGeometry x="-200" y="540" width="120" height="50" as="geometry" />
        </mxCell>
        <mxCell id="_1_03TyXAIXI8CmlSwA5-34" style="edgeStyle=none;rounded=0;orthogonalLoop=1;jettySize=auto;html=1;exitX=0.5;exitY=0;exitDx=0;exitDy=0;endArrow=none;endFill=0;" parent="1" source="_1_03TyXAIXI8CmlSwA5-35" edge="1">
          <mxGeometry relative="1" as="geometry">
            <mxPoint x="-325" y="240" as="targetPoint" />
          </mxGeometry>
        </mxCell>
        <mxCell id="_1_03TyXAIXI8CmlSwA5-35" value="&lt;b&gt;&lt;u&gt;TrackName,&lt;br&gt;AlbumID&lt;/u&gt;&lt;/b&gt;" style="ellipse;whiteSpace=wrap;html=1;" parent="1" vertex="1">
          <mxGeometry x="-385" y="160" width="120" height="50" as="geometry" />
        </mxCell>
        <mxCell id="_1_03TyXAIXI8CmlSwA5-36" value="PlayList" style="shape=ext;double=1;rounded=0;whiteSpace=wrap;html=1;" parent="1" vertex="1">
          <mxGeometry x="-124" y="30" width="120" height="60" as="geometry" />
        </mxCell>
        <mxCell id="_1_03TyXAIXI8CmlSwA5-39" value="" style="edgeStyle=none;rounded=0;orthogonalLoop=1;jettySize=auto;html=1;endArrow=none;endFill=0;" parent="1" source="_1_03TyXAIXI8CmlSwA5-38" target="_1_03TyXAIXI8CmlSwA5-36" edge="1">
          <mxGeometry relative="1" as="geometry" />
        </mxCell>
        <mxCell id="_1_03TyXAIXI8CmlSwA5-38" value="&lt;b&gt;&lt;u&gt;PlayListName,&lt;br&gt;UserID&lt;/u&gt;&lt;/b&gt;" style="ellipse;whiteSpace=wrap;html=1;" parent="1" vertex="1">
          <mxGeometry x="-305" y="10" width="120" height="50" as="geometry" />
        </mxCell>
        <mxCell id="_1_03TyXAIXI8CmlSwA5-43" style="edgeStyle=none;rounded=0;orthogonalLoop=1;jettySize=auto;html=1;exitX=1;exitY=1;exitDx=0;exitDy=0;endArrow=none;endFill=0;" parent="1" source="_1_03TyXAIXI8CmlSwA5-42" target="_1_03TyXAIXI8CmlSwA5-36" edge="1">
          <mxGeometry relative="1" as="geometry" />
        </mxCell>
        <mxCell id="_1_03TyXAIXI8CmlSwA5-44" style="edgeStyle=none;rounded=0;orthogonalLoop=1;jettySize=auto;html=1;exitX=0;exitY=0;exitDx=0;exitDy=0;endArrow=none;endFill=0;" parent="1" source="_1_03TyXAIXI8CmlSwA5-42" target="_1_03TyXAIXI8CmlSwA5-1" edge="1">
          <mxGeometry relative="1" as="geometry" />
        </mxCell>
        <mxCell id="_1_03TyXAIXI8CmlSwA5-42" value="Own" style="shape=rhombus;double=1;perimeter=rhombusPerimeter;whiteSpace=wrap;html=1;align=center;" parent="1" vertex="1">
          <mxGeometry x="20" y="114" width="120" height="60" as="geometry" />
        </mxCell>
        <mxCell id="_1_03TyXAIXI8CmlSwA5-47" value="" style="edgeStyle=none;rounded=0;orthogonalLoop=1;jettySize=auto;html=1;endArrow=none;endFill=0;entryX=0.5;entryY=1;entryDx=0;entryDy=0;" parent="1" source="_1_03TyXAIXI8CmlSwA5-46" target="_1_03TyXAIXI8CmlSwA5-94" edge="1">
          <mxGeometry relative="1" as="geometry">
            <mxPoint x="-308.5" y="300" as="targetPoint" />
          </mxGeometry>
        </mxCell>
        <mxCell id="_1_03TyXAIXI8CmlSwA5-48" style="edgeStyle=none;rounded=0;orthogonalLoop=1;jettySize=auto;html=1;exitX=1;exitY=1;exitDx=0;exitDy=0;entryX=0.5;entryY=0;entryDx=0;entryDy=0;endArrow=none;endFill=0;" parent="1" source="_1_03TyXAIXI8CmlSwA5-46" target="_1_03TyXAIXI8CmlSwA5-14" edge="1">
          <mxGeometry relative="1" as="geometry" />
        </mxCell>
        <mxCell id="_1_03TyXAIXI8CmlSwA5-46" value="Contains" style="shape=rhombus;double=1;perimeter=rhombusPerimeter;whiteSpace=wrap;html=1;align=center;" parent="1" vertex="1">
          <mxGeometry x="-330" y="340" width="120" height="60" as="geometry" />
        </mxCell>
        <mxCell id="_1_03TyXAIXI8CmlSwA5-50" style="edgeStyle=none;rounded=0;orthogonalLoop=1;jettySize=auto;html=1;exitX=1;exitY=0.5;exitDx=0;exitDy=0;entryX=0;entryY=0.5;entryDx=0;entryDy=0;endArrow=none;endFill=0;" parent="1" source="_1_03TyXAIXI8CmlSwA5-49" target="_1_03TyXAIXI8CmlSwA5-1" edge="1">
          <mxGeometry relative="1" as="geometry" />
        </mxCell>
        <mxCell id="_1_03TyXAIXI8CmlSwA5-51" style="edgeStyle=none;rounded=0;orthogonalLoop=1;jettySize=auto;html=1;exitX=0;exitY=0.5;exitDx=0;exitDy=0;entryX=1;entryY=0.5;entryDx=0;entryDy=0;endArrow=none;endFill=0;" parent="1" source="_1_03TyXAIXI8CmlSwA5-49" target="_1_03TyXAIXI8CmlSwA5-94" edge="1">
          <mxGeometry relative="1" as="geometry">
            <mxPoint x="-265" y="270" as="targetPoint" />
          </mxGeometry>
        </mxCell>
        <mxCell id="_1_03TyXAIXI8CmlSwA5-49" value="RateTrack" style="shape=rhombus;perimeter=rhombusPerimeter;whiteSpace=wrap;html=1;align=center;" parent="1" vertex="1">
          <mxGeometry x="-180" y="240" width="120" height="60" as="geometry" />
        </mxCell>
        <mxCell id="_1_03TyXAIXI8CmlSwA5-53" style="edgeStyle=none;rounded=0;orthogonalLoop=1;jettySize=auto;html=1;exitX=1;exitY=0;exitDx=0;exitDy=0;entryX=0;entryY=1;entryDx=0;entryDy=0;endArrow=none;endFill=0;" parent="1" source="_1_03TyXAIXI8CmlSwA5-52" target="_1_03TyXAIXI8CmlSwA5-1" edge="1">
          <mxGeometry relative="1" as="geometry" />
        </mxCell>
        <mxCell id="_1_03TyXAIXI8CmlSwA5-54" style="edgeStyle=none;rounded=0;orthogonalLoop=1;jettySize=auto;html=1;exitX=0;exitY=1;exitDx=0;exitDy=0;entryX=1;entryY=0;entryDx=0;entryDy=0;endArrow=none;endFill=0;" parent="1" source="_1_03TyXAIXI8CmlSwA5-52" target="_1_03TyXAIXI8CmlSwA5-14" edge="1">
          <mxGeometry relative="1" as="geometry" />
        </mxCell>
        <mxCell id="_1_03TyXAIXI8CmlSwA5-52" value="RateAlbum" style="shape=rhombus;perimeter=rhombusPerimeter;whiteSpace=wrap;html=1;align=center;" parent="1" vertex="1">
          <mxGeometry x="-100" y="340" width="120" height="60" as="geometry" />
        </mxCell>
        <mxCell id="_1_03TyXAIXI8CmlSwA5-58" style="edgeStyle=none;rounded=0;orthogonalLoop=1;jettySize=auto;html=1;exitX=0;exitY=0;exitDx=0;exitDy=0;entryX=0.25;entryY=1;entryDx=0;entryDy=0;endArrow=none;endFill=0;" parent="1" source="_1_03TyXAIXI8CmlSwA5-55" target="_1_03TyXAIXI8CmlSwA5-1" edge="1">
          <mxGeometry relative="1" as="geometry" />
        </mxCell>
        <mxCell id="_1_03TyXAIXI8CmlSwA5-59" style="edgeStyle=none;rounded=0;orthogonalLoop=1;jettySize=auto;html=1;exitX=1;exitY=0;exitDx=0;exitDy=0;endArrow=none;endFill=0;entryX=0.5;entryY=1;entryDx=0;entryDy=0;" parent="1" source="_1_03TyXAIXI8CmlSwA5-55" target="_1_03TyXAIXI8CmlSwA5-1" edge="1">
          <mxGeometry relative="1" as="geometry" />
        </mxCell>
        <mxCell id="_1_03TyXAIXI8CmlSwA5-55" value="Follow" style="shape=rhombus;perimeter=rhombusPerimeter;whiteSpace=wrap;html=1;align=center;" parent="1" vertex="1">
          <mxGeometry x="40" y="380" width="120" height="60" as="geometry" />
        </mxCell>
        <mxCell id="_1_03TyXAIXI8CmlSwA5-64" value="" style="edgeStyle=none;rounded=0;orthogonalLoop=1;jettySize=auto;html=1;endArrow=none;endFill=0;" parent="1" source="_1_03TyXAIXI8CmlSwA5-62" target="_1_03TyXAIXI8CmlSwA5-63" edge="1">
          <mxGeometry relative="1" as="geometry" />
        </mxCell>
        <mxCell id="_1_03TyXAIXI8CmlSwA5-62" value="Genre" style="whiteSpace=wrap;html=1;" parent="1" vertex="1">
          <mxGeometry x="40" y="490" width="120" height="60" as="geometry" />
        </mxCell>
        <mxCell id="_1_03TyXAIXI8CmlSwA5-63" value="&lt;b&gt;&lt;u&gt;GenreName&lt;/u&gt;&lt;/b&gt;" style="ellipse;whiteSpace=wrap;html=1;" parent="1" vertex="1">
          <mxGeometry x="40" y="590" width="120" height="50" as="geometry" />
        </mxCell>
        <mxCell id="_1_03TyXAIXI8CmlSwA5-66" value="" style="edgeStyle=none;rounded=0;orthogonalLoop=1;jettySize=auto;html=1;endArrow=none;endFill=0;" parent="1" source="_1_03TyXAIXI8CmlSwA5-65" target="_1_03TyXAIXI8CmlSwA5-14" edge="1">
          <mxGeometry relative="1" as="geometry" />
        </mxCell>
        <mxCell id="_1_03TyXAIXI8CmlSwA5-67" style="edgeStyle=none;rounded=0;orthogonalLoop=1;jettySize=auto;html=1;exitX=1;exitY=1;exitDx=0;exitDy=0;entryX=0;entryY=0.5;entryDx=0;entryDy=0;endArrow=none;endFill=0;" parent="1" source="_1_03TyXAIXI8CmlSwA5-65" target="_1_03TyXAIXI8CmlSwA5-62" edge="1">
          <mxGeometry relative="1" as="geometry" />
        </mxCell>
        <mxCell id="_1_03TyXAIXI8CmlSwA5-65" value="has" style="shape=rhombus;perimeter=rhombusPerimeter;whiteSpace=wrap;html=1;align=center;" parent="1" vertex="1">
          <mxGeometry x="-100" y="455" width="120" height="60" as="geometry" />
        </mxCell>
        <mxCell id="_1_03TyXAIXI8CmlSwA5-75" style="edgeStyle=none;rounded=0;orthogonalLoop=1;jettySize=auto;html=1;exitX=1;exitY=0.5;exitDx=0;exitDy=0;entryX=0;entryY=0.5;entryDx=0;entryDy=0;endArrow=none;endFill=0;" parent="1" source="_1_03TyXAIXI8CmlSwA5-69" target="_1_03TyXAIXI8CmlSwA5-74" edge="1">
          <mxGeometry relative="1" as="geometry" />
        </mxCell>
        <mxCell id="_1_03TyXAIXI8CmlSwA5-69" value="Artist" style="whiteSpace=wrap;html=1;" parent="1" vertex="1">
          <mxGeometry x="-640" y="360" width="120" height="60" as="geometry" />
        </mxCell>
        <mxCell id="_1_03TyXAIXI8CmlSwA5-72" style="edgeStyle=none;rounded=0;orthogonalLoop=1;jettySize=auto;html=1;exitX=0.5;exitY=1;exitDx=0;exitDy=0;endArrow=none;endFill=0;" parent="1" source="_1_03TyXAIXI8CmlSwA5-70" target="_1_03TyXAIXI8CmlSwA5-69" edge="1">
          <mxGeometry relative="1" as="geometry" />
        </mxCell>
        <mxCell id="_1_03TyXAIXI8CmlSwA5-70" value="ArtistID" style="ellipse;whiteSpace=wrap;html=1;fontStyle=5" parent="1" vertex="1">
          <mxGeometry x="-730" y="270" width="120" height="50" as="geometry" />
        </mxCell>
        <mxCell id="_1_03TyXAIXI8CmlSwA5-73" style="edgeStyle=none;rounded=0;orthogonalLoop=1;jettySize=auto;html=1;exitX=0.5;exitY=1;exitDx=0;exitDy=0;endArrow=none;endFill=0;" parent="1" source="_1_03TyXAIXI8CmlSwA5-71" target="_1_03TyXAIXI8CmlSwA5-69" edge="1">
          <mxGeometry relative="1" as="geometry" />
        </mxCell>
        <mxCell id="_1_03TyXAIXI8CmlSwA5-71" value="ArtistName" style="ellipse;whiteSpace=wrap;html=1;fontStyle=0" parent="1" vertex="1">
          <mxGeometry x="-550" y="270" width="120" height="50" as="geometry" />
        </mxCell>
        <mxCell id="_1_03TyXAIXI8CmlSwA5-76" style="edgeStyle=none;rounded=0;orthogonalLoop=1;jettySize=auto;html=1;exitX=1;exitY=1;exitDx=0;exitDy=0;entryX=0;entryY=0;entryDx=0;entryDy=0;endArrow=none;endFill=0;" parent="1" source="_1_03TyXAIXI8CmlSwA5-74" target="_1_03TyXAIXI8CmlSwA5-14" edge="1">
          <mxGeometry relative="1" as="geometry" />
        </mxCell>
        <mxCell id="_1_03TyXAIXI8CmlSwA5-74" value="Made" style="shape=rhombus;perimeter=rhombusPerimeter;whiteSpace=wrap;html=1;align=center;" parent="1" vertex="1">
          <mxGeometry x="-450" y="369" width="120" height="60" as="geometry" />
        </mxCell>
        <mxCell id="_1_03TyXAIXI8CmlSwA5-77" value="1..*" style="text;strokeColor=none;fillColor=none;spacingLeft=4;spacingRight=4;overflow=hidden;rotatable=0;points=[[0,0.5],[1,0.5]];portConstraint=eastwest;fontSize=12;whiteSpace=wrap;html=1;" parent="1" vertex="1">
          <mxGeometry x="-520" y="390" width="30" height="20" as="geometry" />
        </mxCell>
        <mxCell id="_1_03TyXAIXI8CmlSwA5-78" value="1..*" style="text;html=1;align=center;verticalAlign=middle;resizable=0;points=[];autosize=1;strokeColor=none;fillColor=none;" parent="1" vertex="1">
          <mxGeometry x="-290" y="435" width="40" height="30" as="geometry" />
        </mxCell>
        <mxCell id="_1_03TyXAIXI8CmlSwA5-79" value="1..*" style="text;html=1;align=center;verticalAlign=middle;resizable=0;points=[];autosize=1;strokeColor=none;fillColor=none;" parent="1" vertex="1">
          <mxGeometry x="-143" y="454" width="40" height="30" as="geometry" />
        </mxCell>
        <mxCell id="_1_03TyXAIXI8CmlSwA5-80" value="1..*" style="text;html=1;align=center;verticalAlign=middle;resizable=0;points=[];autosize=1;strokeColor=none;fillColor=none;" parent="1" vertex="1">
          <mxGeometry x="7" y="514" width="40" height="30" as="geometry" />
        </mxCell>
        <mxCell id="_1_03TyXAIXI8CmlSwA5-82" value="1..1" style="text;html=1;align=center;verticalAlign=middle;resizable=0;points=[];autosize=1;strokeColor=none;fillColor=none;" parent="1" vertex="1">
          <mxGeometry x="-204" y="417" width="40" height="30" as="geometry" />
        </mxCell>
        <mxCell id="_1_03TyXAIXI8CmlSwA5-83" value="1..*" style="text;html=1;align=center;verticalAlign=middle;resizable=0;points=[];autosize=1;strokeColor=none;fillColor=none;" parent="1" vertex="1">
          <mxGeometry x="-327" y="293" width="40" height="30" as="geometry" />
        </mxCell>
        <mxCell id="_1_03TyXAIXI8CmlSwA5-85" value="0..*" style="text;html=1;align=center;verticalAlign=middle;resizable=0;points=[];autosize=1;strokeColor=none;fillColor=none;" parent="1" vertex="1">
          <mxGeometry x="-160" y="417" width="40" height="30" as="geometry" />
        </mxCell>
        <mxCell id="_1_03TyXAIXI8CmlSwA5-86" value="0..*" style="text;html=1;align=center;verticalAlign=middle;resizable=0;points=[];autosize=1;strokeColor=none;fillColor=none;" parent="1" vertex="1">
          <mxGeometry x="25" y="283" width="40" height="30" as="geometry" />
        </mxCell>
        <mxCell id="_1_03TyXAIXI8CmlSwA5-87" value="0..*" style="text;html=1;align=center;verticalAlign=middle;resizable=0;points=[];autosize=1;strokeColor=none;fillColor=none;" parent="1" vertex="1">
          <mxGeometry x="59" y="293" width="40" height="30" as="geometry" />
        </mxCell>
        <mxCell id="_1_03TyXAIXI8CmlSwA5-88" value="0.*" style="text;html=1;align=center;verticalAlign=middle;resizable=0;points=[];autosize=1;strokeColor=none;fillColor=none;" parent="1" vertex="1">
          <mxGeometry x="113" y="295" width="40" height="30" as="geometry" />
        </mxCell>
        <mxCell id="_1_03TyXAIXI8CmlSwA5-89" value="1..1" style="text;html=1;align=center;verticalAlign=middle;resizable=0;points=[];autosize=1;strokeColor=none;fillColor=none;" parent="1" vertex="1">
          <mxGeometry x="94" y="216" width="40" height="30" as="geometry" />
        </mxCell>
        <mxCell id="_1_03TyXAIXI8CmlSwA5-90" value="0..*" style="text;html=1;align=center;verticalAlign=middle;resizable=0;points=[];autosize=1;strokeColor=none;fillColor=none;" parent="1" vertex="1">
          <mxGeometry x="-10" y="72" width="40" height="30" as="geometry" />
        </mxCell>
        <mxCell id="_1_03TyXAIXI8CmlSwA5-91" value="0..*" style="text;html=1;align=center;verticalAlign=middle;resizable=0;points=[];autosize=1;strokeColor=none;fillColor=none;" parent="1" vertex="1">
          <mxGeometry x="-272" y="248" width="40" height="30" as="geometry" />
        </mxCell>
        <mxCell id="_1_03TyXAIXI8CmlSwA5-92" value="0..*" style="text;html=1;align=center;verticalAlign=middle;resizable=0;points=[];autosize=1;strokeColor=none;fillColor=none;" parent="1" vertex="1">
          <mxGeometry x="25" y="246" width="40" height="30" as="geometry" />
        </mxCell>
        <mxCell id="_1_03TyXAIXI8CmlSwA5-94" value="Track" style="shape=ext;double=1;rounded=0;whiteSpace=wrap;html=1;" parent="1" vertex="1">
          <mxGeometry x="-385" y="240" width="120" height="60" as="geometry" />
        </mxCell>
        <mxCell id="MP8f6LR1UESVLWJleXkM-7" style="rounded=0;orthogonalLoop=1;jettySize=auto;html=1;exitX=1;exitY=0;exitDx=0;exitDy=0;entryX=0.5;entryY=1;entryDx=0;entryDy=0;endArrow=none;endFill=0;" edge="1" parent="1" source="MP8f6LR1UESVLWJleXkM-12" target="_1_03TyXAIXI8CmlSwA5-36">
          <mxGeometry relative="1" as="geometry">
            <mxPoint x="-133" y="146" as="sourcePoint" />
          </mxGeometry>
        </mxCell>
        <mxCell id="MP8f6LR1UESVLWJleXkM-9" style="rounded=0;orthogonalLoop=1;jettySize=auto;html=1;exitX=0;exitY=1;exitDx=0;exitDy=0;entryX=1;entryY=0;entryDx=0;entryDy=0;endArrow=none;endFill=0;" edge="1" parent="1" source="MP8f6LR1UESVLWJleXkM-12" target="_1_03TyXAIXI8CmlSwA5-94">
          <mxGeometry relative="1" as="geometry">
            <mxPoint x="-193" y="176" as="sourcePoint" />
          </mxGeometry>
        </mxCell>
        <mxCell id="MP8f6LR1UESVLWJleXkM-10" value="0..*" style="text;html=1;align=center;verticalAlign=middle;resizable=0;points=[];autosize=1;strokeColor=none;fillColor=none;" vertex="1" parent="1">
          <mxGeometry x="-73" y="84" width="40" height="30" as="geometry" />
        </mxCell>
        <mxCell id="MP8f6LR1UESVLWJleXkM-11" value="0..*" style="text;html=1;align=center;verticalAlign=middle;resizable=0;points=[];autosize=1;strokeColor=none;fillColor=none;" vertex="1" parent="1">
          <mxGeometry x="-291" y="218" width="40" height="30" as="geometry" />
        </mxCell>
        <mxCell id="MP8f6LR1UESVLWJleXkM-12" value="Have" style="shape=rhombus;perimeter=rhombusPerimeter;whiteSpace=wrap;html=1;align=center;" vertex="1" parent="1">
          <mxGeometry x="-220" y="130" width="120" height="60" as="geometry" />
        </mxCell>
      </root>
    </mxGraphModel>
  </diagram>
</mxfile>
